<?xml version="1.0" encoding="UTF-8" standalone="no"?>
<!DOCTYPE svg PUBLIC "-//W3C//DTD SVG 1.1//EN" "http://www.w3.org/Graphics/SVG/1.1/DTD/svg11.dtd">
<svg width="100%" height="100%" viewBox="0 0 191 147" version="1.1" xmlns="http://www.w3.org/2000/svg" xmlns:xlink="http://www.w3.org/1999/xlink" xml:space="preserve" xmlns:serif="http://www.serif.com/" style="fill-rule:evenodd;clip-rule:evenodd;stroke-linejoin:round;stroke-miterlimit:2;">
    <g transform="matrix(1,0,0,1,-53,-136)">
        <g id="_2027633762784">
            <path d="M53.756,144.425L56.637,138.881L236.447,136.972L243.477,263.889L66.954,282.586L64.611,278.362L53.756,144.425Z" style="fill:rgb(43,42,41);fill-rule:nonzero;"/>
            <path d="M58.694,143.872L233.118,140.904L240.722,259.675L67.908,276.5L58.694,143.872Z" style="fill:rgb(43,42,41);fill-rule:nonzero;"/>
            <path d="M139.965,256.288C151.312,255.518 165.101,254.661 176.475,253.536C176.206,252.41 175.865,251.194 175.522,249.863C163.497,251.159 151.251,252.258 139.076,253.126L139.965,256.288Z" style="fill:rgb(254,254,254);fill-rule:nonzero;"/>
            <path d="M115.764,248.93C105.364,249.889 94.869,250.682 84.44,251.287L85.73,254.345C95.721,253.818 106.932,252.967 116.952,252.12C116.55,251.09 116.16,250.004 115.764,248.93Z" style="fill:rgb(254,254,254);fill-rule:nonzero;"/>
            <path d="M130.509,249.454C144.869,248.888 159.983,247.757 174.269,246.39C174.036,245.583 173.807,244.739 173.512,243.847C158.904,245.365 143.962,246.459 129.156,247.123L130.509,249.454Z" style="fill:rgb(254,254,254);fill-rule:nonzero;"/>
            <path d="M78.079,198.051C95.031,197.587 209.943,189.71 226.72,188.153C226.47,187.339 226.202,186.48 225.934,185.604C208.835,187.313 94.758,195.497 77.417,196.074L78.079,198.051Z" style="fill:rgb(254,254,254);fill-rule:nonzero;"/>
            <path d="M102.245,259.125C107.336,258.663 103.78,259.18 119.119,257.821C118.825,256.978 118.578,256.146 118.24,255.26C102.675,256.77 107.326,256.131 101.825,256.689L102.245,259.125Z" style="fill:rgb(254,254,254);fill-rule:nonzero;"/>
            <path d="M192.625,154.174C181.975,154.303 154.66,153.759 154.66,153.759L156.576,159.296C156.576,159.296 183.747,158.681 195.096,158.543L192.625,154.174Z" style="fill:rgb(254,254,254);fill-rule:nonzero;"/>
            <path d="M186.702,162.355C173.794,162.188 157.344,163.195 157.344,163.195L159.04,167.965C159.04,167.965 178.822,166.777 188.38,166.369L186.702,162.355Z" style="fill:rgb(254,254,254);fill-rule:nonzero;"/>
            <path d="M161.912,176.083C173.258,175.313 187.047,174.456 198.422,173.331C198.152,172.205 197.812,170.989 197.468,169.658C185.444,170.954 173.198,172.053 161.022,172.921L161.912,176.083Z" style="fill:rgb(254,254,254);fill-rule:nonzero;"/>
            <path d="M217.881,247.883C207.481,248.842 196.986,249.635 186.557,250.24L187.846,253.298C197.838,252.77 209.049,251.919 219.069,251.073C218.667,250.043 218.277,248.957 217.881,247.883Z" style="fill:rgb(254,254,254);fill-rule:nonzero;"/>
            <path d="M134.896,162.695C135.71,162.045 136.556,161.532 137.407,161.173C138.256,160.799 139.152,160.56 140.062,160.445C142.627,160.121 144.863,160.75 146.786,162.329C148.707,163.893 149.839,166.09 150.192,168.889L150.319,169.896L142.263,166.458C142.057,166.372 141.865,166.298 141.676,166.238C141.486,166.178 141.357,166.152 141.274,166.163C141.163,166.177 141.062,166.259 140.938,166.387C140.816,166.529 140.711,166.696 140.638,166.901L138.767,171.607C138.679,171.8 138.61,172.034 138.555,172.264C138.516,172.507 138.494,172.665 138.504,172.747C138.523,172.898 138.612,173.042 138.753,173.164C138.908,173.284 139.16,173.393 139.498,173.518L147.474,176.546C146.911,177.528 146.194,178.277 145.335,178.805C144.466,179.35 143.416,179.692 142.188,179.847C139.417,180.197 137.094,179.552 135.233,177.909C133.373,176.267 132.244,173.874 131.846,170.715L131.795,170.315C130.625,169.034 129.263,168.127 127.735,167.564C126.194,167.016 124.603,166.838 122.962,167.045C119.831,167.441 116.592,170.078 113.201,174.961C112.64,175.732 112.211,176.333 111.915,176.762C109.405,180.288 107.355,182.592 105.785,183.687C104.212,184.768 102.379,185.448 100.269,185.715C98.227,185.973 96.077,185.697 93.82,184.904C91.576,184.108 88.908,182.624 85.805,180.466C84.959,180.867 84.148,181.207 83.383,181.472C82.632,181.735 81.937,181.892 81.316,181.971C77.897,182.403 75.077,181.82 72.87,180.208C70.678,178.607 69.363,176.181 68.955,172.954C68.898,172.498 68.868,172.153 68.856,171.944C68.842,171.721 68.842,171.497 68.871,171.283L77.162,175.7C77.357,175.802 77.551,175.889 77.725,175.938C77.897,175.972 78.04,175.995 78.178,175.978C78.371,175.954 78.566,175.832 78.78,175.636C78.977,175.429 79.153,175.155 79.306,174.813L81.465,170.716C81.6,170.461 81.698,170.238 81.772,170.047C81.833,169.857 81.872,169.725 81.861,169.643C81.837,169.45 81.775,169.29 81.7,169.145C81.613,169.002 81.454,168.854 81.25,168.684L73.174,163.427C73.878,163.114 74.562,162.873 75.198,162.695C75.847,162.514 76.477,162.393 77.069,162.318C80.255,161.916 82.96,162.583 85.212,164.331C87.462,166.064 88.782,168.531 89.184,171.717C89.214,171.952 89.234,172.215 89.243,172.508C89.251,172.801 89.258,173.192 89.27,173.724C91.302,175.288 93.158,176.441 94.846,177.167C96.521,177.894 97.987,178.185 99.214,178.03C102.027,177.675 105.088,174.948 108.41,169.864C109.223,168.64 109.832,167.694 110.281,167.036C112.009,164.519 113.775,162.643 115.554,161.41C117.346,160.189 119.394,159.426 121.711,159.133C123.517,158.905 125.529,159.086 127.735,159.69C129.955,160.293 132.337,161.294 134.896,162.695Z" style="fill:rgb(254,254,254);fill-rule:nonzero;"/>
            <path d="M79.9,213.339C96.852,212.876 211.763,204.998 228.54,203.442C228.29,202.628 228.023,201.768 227.754,200.892C210.655,202.601 96.578,210.786 79.237,211.363L79.9,213.339Z" style="fill:rgb(254,254,254);fill-rule:nonzero;"/>
            <path d="M82.812,239.912C99.764,239.448 214.676,231.57 231.453,230.014C231.203,229.2 230.935,228.341 230.667,227.464C213.568,229.174 99.491,237.358 82.15,237.935L82.812,239.912Z" style="fill:rgb(254,254,254);fill-rule:nonzero;"/>
            <path d="M76.466,196.5C77.776,210.811 79.689,225.846 81.796,240.043C82.589,239.768 83.421,239.496 84.296,239.155C82.022,224.645 80.155,209.78 78.724,195.029L76.466,196.5Z" style="fill:rgb(254,254,254);fill-rule:nonzero;"/>
            <path d="M123.788,194.316C125.097,208.628 127.011,223.663 129.118,237.859C129.911,237.584 130.742,237.312 131.618,236.971C129.344,222.462 127.477,207.596 126.046,192.845L123.788,194.316Z" style="fill:rgb(254,254,254);fill-rule:nonzero;"/>
            <path d="M224.256,187.764C225.566,202.075 227.479,217.11 229.586,231.307C230.378,231.032 231.21,230.759 232.086,230.418C229.812,215.909 227.945,201.044 226.513,186.293L224.256,187.764Z" style="fill:rgb(254,254,254);fill-rule:nonzero;"/>
            <path d="M216.425,240.238C206.025,241.197 195.53,241.99 185.101,242.595L186.39,245.653C196.382,245.126 207.593,244.275 217.613,243.428C217.211,242.398 216.821,241.313 216.425,240.238Z" style="fill:rgb(254,254,254);fill-rule:nonzero;"/>
        </g>
    </g>
</svg>
