<?xml version="1.0" encoding="UTF-8" standalone="no"?>
<!DOCTYPE svg PUBLIC "-//W3C//DTD SVG 1.1//EN" "http://www.w3.org/Graphics/SVG/1.1/DTD/svg11.dtd">
<svg width="100%" height="100%" viewBox="0 0 163 177" version="1.1" xmlns="http://www.w3.org/2000/svg" xmlns:xlink="http://www.w3.org/1999/xlink" xml:space="preserve" xmlns:serif="http://www.serif.com/" style="fill-rule:evenodd;clip-rule:evenodd;stroke-linejoin:round;stroke-miterlimit:2;">
    <g transform="matrix(1,0,0,1,-67,-121)">
        <g id="_2026502823168">
            <path d="M127.849,204.426C126.587,204.055 125.325,203.684 124.062,203.312C122.726,183.637 121.389,165.298 120.053,145.623C120.573,143.47 121.093,139.98 121.612,137.827C126.963,126.748 135.64,121.212 148.118,122.012C174.624,127.729 201.131,133.446 227.637,139.163C228.379,141.019 229.121,142.875 229.864,144.732C228.899,164.407 227.933,184.082 226.968,203.758C222.704,214.23 214.527,222.093 203.135,227.814C201.205,227.22 199.274,226.626 197.344,226.032C196.527,224.027 195.71,222.022 194.894,220.018C173.362,213.558 151.831,207.099 130.299,200.64C129.482,201.902 128.666,203.164 127.849,204.426Z" style="fill:rgb(43,42,41);fill-rule:nonzero;"/>
            <path d="M134.19,199.001L222.396,205.828C221.727,218.375 221.059,235.902 220.391,248.45C215.268,259.603 208.436,266.995 200.344,271.615L129.067,246L126.172,201.674L134.19,199.001Z" style="fill:rgb(43,42,41);fill-rule:nonzero;"/>
            <path d="M131.57,196.643L219.775,208.449C219.107,220.996 218.439,233.544 217.77,246.091C212.648,257.245 205.816,264.637 197.724,269.256L126.447,243.641L123.551,199.316L131.57,196.643Z" style="fill:rgb(254,254,254);"/>
            <path d="M131.631,197.304L219.097,209.01L217.13,245.935C214.61,251.398 211.673,255.945 208.374,259.695C205.132,263.381 201.543,266.293 197.66,268.546L127.066,243.177L124.23,199.771L131.631,197.304ZM219.859,207.807L131.509,195.982C128.629,196.94 125.751,197.901 122.873,198.861C123.856,213.943 124.84,229.024 125.828,244.106C149.812,252.732 173.8,261.346 197.786,269.966L198.043,269.819C202.153,267.473 205.941,264.426 209.348,260.553C212.746,256.69 215.768,252.001 218.359,246.36L218.41,246.247C219.098,233.461 219.772,220.673 220.453,207.886L219.859,207.807Z" style="fill:rgb(43,42,41);fill-rule:nonzero;"/>
            <path d="M124.443,205.998C123.18,205.627 121.918,205.256 120.656,204.885C119.319,185.209 117.983,166.87 116.647,147.195C117.166,145.042 117.686,141.552 118.206,139.399C123.557,128.32 132.233,122.784 144.712,123.584C171.218,129.302 197.724,135.018 224.23,140.735C224.973,142.592 225.715,144.448 226.457,146.304C225.492,165.979 224.527,185.655 223.562,205.33C219.297,215.802 211.12,223.666 199.729,229.386C197.798,228.792 195.868,228.198 193.937,227.604C193.12,225.6 192.304,223.595 191.487,221.59C169.955,215.131 148.424,208.671 126.893,202.212C126.076,203.474 125.259,204.736 124.443,205.998Z" style="fill:rgb(218,218,218);fill-rule:nonzero;"/>
            <path d="M124.162,205.241L121.272,204.391C120.614,194.714 119.955,185.355 119.298,175.997C118.632,166.524 117.965,157.05 117.299,147.246C117.555,146.167 117.809,144.79 118.062,143.414C118.315,142.043 118.568,140.672 118.818,139.621C121.435,134.224 124.851,130.181 129.121,127.59C133.391,124.998 138.539,123.846 144.622,124.228L223.757,141.296L225.804,146.414L222.921,205.184C220.823,210.298 217.775,214.778 213.861,218.681C209.962,222.569 205.205,225.887 199.671,228.691L194.422,227.076L191.971,221.058C170.183,214.529 148.399,207.988 126.614,201.451L124.162,205.241ZM120.473,205.506L124.723,206.756L127.171,202.972L191.004,222.122L193.452,228.132L199.785,230.081L200.018,229.964C205.777,227.072 210.725,223.637 214.774,219.599C218.838,215.546 221.997,210.891 224.163,205.573L224.203,205.475C225.163,185.715 226.14,165.955 227.111,146.194L224.703,140.175C198.071,134.425 171.437,128.683 144.803,122.941L144.752,122.938C138.379,122.529 132.964,123.745 128.451,126.484C123.941,129.221 120.352,133.466 117.622,139.118L117.594,139.177L117.577,139.247C117.313,140.34 117.051,141.761 116.79,143.18C116.532,144.582 116.273,145.983 116.018,147.043L115.994,147.143L116,147.238C116.668,157.076 117.336,166.579 118.005,176.083C118.673,185.586 119.341,195.09 120.009,204.928L120.04,205.378L120.473,205.506Z" style="fill:rgb(43,42,41);fill-rule:nonzero;"/>
            <path d="M201.467,228.743L202.8,165.437L204.249,160.26C207.19,156.501 210.402,153.167 213.833,150.178C217.337,147.127 221.046,144.45 224.909,142.059L223.55,139.857C219.543,142.339 215.716,145.096 212.129,148.221C208.531,151.355 205.152,154.876 202.045,158.877L201.889,159.078L200.221,165.037L198.881,228.692L201.467,228.743Z" style="fill:rgb(43,42,41);fill-rule:nonzero;"/>
            <path d="M119.466,141.553L201.656,161.154L202.255,158.628L120.064,139.027L119.466,141.553Z" style="fill:rgb(43,42,41);fill-rule:nonzero;"/>
            <path d="M198.925,269.094L198.925,228.902L196.328,228.902L196.328,269.094L198.925,269.094Z" style="fill:rgb(43,42,41);fill-rule:nonzero;"/>
            <path d="M126.177,151.538L128.011,192.941L192.735,211.022L193.26,168.047L126.177,151.538Z" style="fill:rgb(184,34,33);fill-rule:nonzero;"/>
            <path d="M76.553,245.579C75.575,245.292 74.597,245.004 73.62,244.716C72.585,229.476 71.549,215.271 70.514,200.032C70.917,198.364 71.319,195.661 71.722,193.993C75.866,185.412 82.587,181.123 92.253,181.744C112.784,186.172 133.315,190.6 153.846,195.028C154.42,196.466 154.996,197.904 155.571,199.341C154.823,214.582 154.075,229.821 153.328,245.062C150.024,253.173 143.691,259.264 134.867,263.695C133.372,263.235 131.877,262.774 130.382,262.314C129.749,260.762 129.116,259.209 128.484,257.656C111.806,252.653 95.128,247.649 78.451,242.646C77.818,243.624 77.185,244.602 76.553,245.579Z" style="fill:rgb(43,42,41);fill-rule:nonzero;"/>
            <path d="M81.465,241.377L149.786,246.665C149.268,256.384 148.751,269.96 148.233,279.679C144.265,288.318 138.973,294.043 132.705,297.622L77.496,277.781L75.254,243.448L81.465,241.377Z" style="fill:rgb(43,42,41);fill-rule:nonzero;"/>
            <path d="M79.435,239.551L147.756,248.695C147.239,258.414 146.721,268.133 146.203,277.852C142.236,286.491 136.944,292.217 130.676,295.795L75.467,275.954L73.224,241.621L79.435,239.551Z" style="fill:rgb(254,254,254);"/>
            <path d="M79.482,240.063L147.231,249.13L145.708,277.731C143.756,281.962 141.48,285.485 138.925,288.389C136.414,291.244 133.634,293.499 130.626,295.245L75.946,275.594L73.75,241.974L79.482,240.063ZM147.821,248.198L79.387,239.039C77.157,239.781 74.928,240.525 72.698,241.269C73.46,252.95 74.222,264.632 74.987,276.314C93.565,282.996 112.145,289.668 130.724,296.345L130.923,296.231C134.107,294.414 137.041,292.053 139.679,289.053C142.311,286.061 144.653,282.429 146.659,278.06L146.699,277.973C147.232,268.069 147.754,258.164 148.281,248.259L147.821,248.198Z" style="fill:rgb(43,42,41);fill-rule:nonzero;"/>
            <path d="M73.914,246.797C72.936,246.509 71.959,246.222 70.981,245.934C69.946,230.694 68.911,216.49 67.876,201.249C68.278,199.582 68.681,196.879 69.083,195.211C73.228,186.63 79.948,182.341 89.614,182.961C110.145,187.39 130.676,191.818 151.207,196.246C151.782,197.684 152.357,199.122 152.932,200.559C152.184,215.799 151.437,231.039 150.689,246.279C147.386,254.391 141.053,260.482 132.229,264.912C130.733,264.452 129.238,263.992 127.743,263.532C127.11,261.979 126.478,260.427 125.845,258.874C109.167,253.871 92.49,248.867 75.812,243.864C75.179,244.842 74.547,245.819 73.914,246.797Z" style="fill:rgb(218,218,218);fill-rule:nonzero;"/>
            <path d="M73.697,246.21L71.458,245.552C70.949,238.056 70.439,230.807 69.929,223.558C69.413,216.221 68.897,208.883 68.381,201.289C68.579,200.453 68.776,199.387 68.972,198.32C69.168,197.259 69.363,196.197 69.557,195.383C71.585,191.203 74.23,188.071 77.537,186.064C80.845,184.056 84.833,183.164 89.545,183.46L150.841,196.68L152.426,200.644L150.193,246.166C148.568,250.127 146.207,253.598 143.176,256.62C140.156,259.632 136.47,262.202 132.184,264.374L128.119,263.123L126.22,258.462C109.344,253.404 92.47,248.338 75.596,243.275L73.697,246.21ZM70.839,246.415L74.131,247.384L76.028,244.453L125.47,259.286L127.367,263.941L132.273,265.451L132.453,265.36C136.913,263.12 140.746,260.459 143.883,257.332C147.031,254.193 149.477,250.587 151.155,246.468L151.186,246.392C151.929,231.086 152.686,215.78 153.438,200.474L151.573,195.812C130.944,191.358 110.314,186.91 89.685,182.463L89.646,182.46C84.709,182.144 80.515,183.086 77.019,185.208C73.526,187.327 70.746,190.615 68.631,194.993L68.609,195.039L68.596,195.093C68.391,195.94 68.189,197.04 67.986,198.14C67.787,199.225 67.586,200.311 67.388,201.131L67.37,201.209L67.375,201.283C67.892,208.903 68.41,216.264 68.928,223.625C69.445,230.986 69.963,238.348 70.48,245.968L70.504,246.317L70.839,246.415Z" style="fill:rgb(43,42,41);fill-rule:nonzero;"/>
            <path d="M133.575,264.415L134.608,215.379L135.73,211.37C138.008,208.457 140.496,205.875 143.154,203.56C145.867,201.196 148.74,199.124 151.733,197.271L150.68,195.566C147.576,197.488 144.612,199.624 141.834,202.044C139.047,204.472 136.43,207.199 134.023,210.298L133.902,210.453L132.61,215.069L131.572,264.375L133.575,264.415Z" style="fill:rgb(43,42,41);fill-rule:nonzero;"/>
            <path d="M70.059,196.879L133.722,212.062L134.186,210.105L70.523,194.923L70.059,196.879Z" style="fill:rgb(43,42,41);fill-rule:nonzero;"/>
            <path d="M131.606,295.669L131.606,264.537L129.595,264.537L129.595,295.669L131.606,295.669Z" style="fill:rgb(43,42,41);fill-rule:nonzero;"/>
            <path d="M75.258,204.614L76.678,236.683L126.812,250.688L127.218,217.401L75.258,204.614Z" style="fill:rgb(184,34,33);fill-rule:nonzero;"/>
            <path d="M216.876,200.292C218.959,183.621 221.043,166.951 223.126,150.28C222.432,167.834 221.738,185.39 221.043,202.943C216.918,212.057 211.213,218.01 204.562,222.076C209.93,215.235 214.54,208.141 216.876,200.292Z" style="fill:rgb(254,254,254);"/>
            <path d="M144.986,243.301C146.411,231.895 147.838,220.489 149.263,209.083C148.788,221.093 148.313,233.105 147.838,245.115C145.015,251.351 141.112,255.425 136.561,258.206C140.234,253.526 143.388,248.672 144.986,243.301Z" style="fill:rgb(254,254,254);"/>
        </g>
    </g>
</svg>
